<svg xmlns="http://www.w3.org/2000/svg" viewBox="0 0 128 128">
  <rect width="128" height="128" rx="24" fill="#0a0e13"/>
  <!-- Phoenix body and wings -->
  <path d="M64 28c-4 8-16 22-30 30 8-2 18-2 26 2-6 6-14 16-16 28 6-8 14-14 22-16-2 8-2 18 2 28 4-10 4-20 2-28 8 2 16 8 22 16-2-12-10-22-16-28 8-4 18-4 26-2C88 50 76 36 72 28c-2-4-4-6-8-6z" fill="url(#fireGrad)"/>
  <!-- Inner flame detail -->
  <path d="M64 44c-2 6-8 14-14 20 4-1 9 0 13 3-3 5-6 12-6 20 3-5 7-9 12-10 0 6 1 12 3 18 2-6 3-12 3-18 5 1 9 5 12 10 0-8-3-15-6-20 4-3 9-4 13-3-6-6-12-14-14-20-1-3-3-3-4-3s-3 0-4 3z" fill="url(#innerGrad)" opacity="0.9"/>
  <defs>
    <linearGradient id="fireGrad" x1="0.5" y1="0" x2="0.5" y2="1">
      <stop offset="0%" stop-color="#f59e0b"/>
      <stop offset="50%" stop-color="#ef4444"/>
      <stop offset="100%" stop-color="#0d9488"/>
    </linearGradient>
    <linearGradient id="innerGrad" x1="0.5" y1="0" x2="0.5" y2="1">
      <stop offset="0%" stop-color="#fbbf24"/>
      <stop offset="60%" stop-color="#f97316"/>
      <stop offset="100%" stop-color="#dc2626"/>
    </linearGradient>
  </defs>
</svg>
