<svg xmlns="http://www.w3.org/2000/svg" viewBox="0 0 128 128">
  <circle cx="64" cy="64" r="64" fill="#0a0e13"/>
  <!-- Blue flame aura (outer glow) -->
  <path d="M64 14c-8 12-24 32-40 44 12-2 26 0 34 6-10 10-18 24-20 40 10-12 18-18 28-20-2 12-1 24 5 36 6-12 7-24 5-36 10 2 18 8 28 20-2-16-10-30-20-40 8-6 22-8 34-6C88 46 80 26 72 14c-3-5-5-8-8-8s-5 3-8 8z" fill="url(#flameOuter)" opacity="0.4"/>
  <!-- Phoenix body - black silhouette -->
  <path d="M64 26c-6 10-18 26-32 36 10-2 20-1 28 3-8 8-14 18-16 32 8-10 14-14 22-16-1 10-1 20 3 30 4-10 4-20 3-30 8 2 14 6 22 16-2-14-8-24-16-32 8-4 18-5 28-3C80 52 74 36 68 26c-2-3-3-5-4-5s-2 2-4 5z" fill="#080808" stroke="url(#blueEdge)" stroke-width="1.8"/>
  <!-- Inner flame detail -->
  <path d="M64 42c-3 6-10 16-16 22 5-1 10 0 14 4-4 6-7 14-7 22 4-6 8-10 13-12 0 7 1 14 4 20 3-6 4-13 4-20 5 2 9 6 13 12 0-8-3-16-7-22 4-4 9-5 14-4-6-6-13-16-16-22-1-3-3-4-4-4s-3 1-4 4z" fill="url(#flameInner)" opacity="0.9"/>
  <!-- Central flame core -->
  <path d="M64 56c-2 4-5 10-8 14 3 0 5 1 7 3-2 4-3 8-3 14 2-4 4-6 7-7 0 4 1 8 2 12 1-4 2-8 2-12 3 1 5 3 7 7 0-6-1-10-3-14 2-2 4-3 7-3-3-4-6-10-8-14-1-2-2-3-3-3s-2 1-3 3z" fill="url(#flameCore)" opacity="0.95"/>
  <defs>
    <linearGradient id="flameOuter" x1="0.5" y1="0" x2="0.5" y2="1">
      <stop offset="0%" stop-color="#60a5fa"/>
      <stop offset="50%" stop-color="#3b82f6"/>
      <stop offset="100%" stop-color="#1e3a8a"/>
    </linearGradient>
    <linearGradient id="blueEdge" x1="0.5" y1="0" x2="0.5" y2="1">
      <stop offset="0%" stop-color="#93c5fd"/>
      <stop offset="40%" stop-color="#3b82f6"/>
      <stop offset="100%" stop-color="#1e40af"/>
    </linearGradient>
    <linearGradient id="flameInner" x1="0.5" y1="0" x2="0.5" y2="1">
      <stop offset="0%" stop-color="#93c5fd"/>
      <stop offset="30%" stop-color="#60a5fa"/>
      <stop offset="100%" stop-color="#2563eb"/>
    </linearGradient>
    <linearGradient id="flameCore" x1="0.5" y1="0" x2="0.5" y2="1">
      <stop offset="0%" stop-color="#bfdbfe"/>
      <stop offset="50%" stop-color="#93c5fd"/>
      <stop offset="100%" stop-color="#3b82f6"/>
    </linearGradient>
  </defs>
</svg>
