<svg xmlns="http://www.w3.org/2000/svg" viewBox="0 0 128 128">
  <rect width="128" height="128" rx="24" fill="#0a0e13"/>
  <!-- Blue flame aura -->
  <path d="M64 18c-6 10-20 28-36 38 10-2 22-1 30 4-8 8-16 20-18 34 8-10 16-16 26-18-2 10-2 22 4 32 6-10 6-22 4-32 10 2 18 8 26 18-2-14-10-26-18-34 8-5 20-6 30-4C96 46 82 28 76 18c-3-5-6-8-12-8z" fill="url(#blueFlame)" opacity="0.5"/>
  <!-- Phoenix body - black silhouette -->
  <path d="M64 28c-4 8-16 22-30 30 8-2 18-2 26 2-6 6-14 16-16 28 6-8 14-14 22-16-2 8-2 18 2 28 4-10 4-20 2-28 8 2 16 8 22 16-2-12-10-22-16-28 8-4 18-4 26-2C88 50 76 36 72 28c-2-4-4-6-8-6z" fill="#0f0f0f" stroke="url(#blueEdge)" stroke-width="1.5"/>
  <!-- Inner wing/flame detail -->
  <path d="M64 44c-2 6-8 14-14 20 4-1 9 0 13 3-3 5-6 12-6 20 3-5 7-9 12-10 0 6 1 12 3 18 2-6 3-12 3-18 5 1 9 5 12 10 0-8-3-15-6-20 4-3 9-4 13-3-6-6-12-14-14-20-1-3-3-3-4-3s-3 0-4 3z" fill="url(#innerBlue)" opacity="0.85"/>
  <defs>
    <linearGradient id="blueFlame" x1="0.5" y1="0" x2="0.5" y2="1">
      <stop offset="0%" stop-color="#60a5fa"/>
      <stop offset="50%" stop-color="#3b82f6"/>
      <stop offset="100%" stop-color="#1e3a8a"/>
    </linearGradient>
    <linearGradient id="blueEdge" x1="0.5" y1="0" x2="0.5" y2="1">
      <stop offset="0%" stop-color="#93c5fd"/>
      <stop offset="50%" stop-color="#3b82f6"/>
      <stop offset="100%" stop-color="#1e40af"/>
    </linearGradient>
    <linearGradient id="innerBlue" x1="0.5" y1="0" x2="0.5" y2="1">
      <stop offset="0%" stop-color="#93c5fd"/>
      <stop offset="40%" stop-color="#60a5fa"/>
      <stop offset="100%" stop-color="#2563eb"/>
    </linearGradient>
  </defs>
</svg>
